<svg width="123" height="33" viewBox="0 0 123 33" fill="none" xmlns="http://www.w3.org/2000/svg">
<g clip-path="url(#clip0_5_718)">
<path d="M15.8198 0.97998C12.6908 0.97998 9.63278 1.90198 7.03078 3.63098C4.42878 5.35898 2.40178 7.81498 1.20378 10.689C0.0067786 13.563 -0.306221 16.726 0.303779 19.777C0.913779 22.828 2.42078 25.63 4.63378 27.83C6.84578 30.03 9.66478 31.528 12.7338 32.135C15.8028 32.741 18.9838 32.43 21.8738 31.239C24.7648 30.049 27.2358 28.033 28.9738 25.447C30.7128 22.86 31.6398 19.819 31.6398 16.708C31.6398 12.537 29.9738 8.53598 27.0068 5.58698C24.0398 2.63698 20.0158 0.97998 15.8198 0.97998ZM15.8198 30.017C13.1728 30.017 10.5848 29.236 8.38278 27.774C6.18178 26.312 4.46578 24.233 3.45278 21.801C2.43978 19.369 2.17478 16.694 2.69078 14.112C3.20778 11.53 4.48278 9.15898 6.35478 7.29798C8.22678 5.43698 10.6118 4.16898 13.2088 3.65498C15.8048 3.14198 18.4968 3.40598 20.9428 4.41298C23.3888 5.41998 25.4798 7.12598 26.9508 9.31398C28.4218 11.503 29.2068 14.076 29.2068 16.708C29.2068 20.238 27.7958 23.623 25.2858 26.119C22.7748 28.615 19.3708 30.017 15.8198 30.017Z" fill="white"/>
<path d="M9.47999 16.394C9.59399 16.507 9.72799 16.597 9.87699 16.659C10.025 16.72 10.184 16.752 10.345 16.752C10.505 16.752 10.664 16.72 10.813 16.659C10.961 16.597 11.095 16.507 11.209 16.394L14.068 13.551C14.606 13.009 14.933 12.295 14.994 11.537C15.054 10.778 14.843 10.023 14.398 9.40397C13.953 8.78497 13.302 8.34197 12.56 8.15297C11.819 7.96397 11.034 8.04197 10.345 8.37197C9.65399 8.02197 8.85999 7.92897 8.10599 8.11197C7.35299 8.29397 6.68999 8.73997 6.23899 9.36697C5.78799 9.99397 5.57899 10.761 5.64899 11.529C5.71899 12.297 6.06399 13.014 6.62099 13.551L9.47999 16.394ZM8.33699 10.659C8.40999 10.582 8.49899 10.521 8.59799 10.479C8.69599 10.437 8.80199 10.416 8.90899 10.416C9.01499 10.416 9.12099 10.437 9.21999 10.479C9.31799 10.521 9.40699 10.582 9.47999 10.659C9.59399 10.772 9.72799 10.862 9.87699 10.924C10.025 10.985 10.184 11.017 10.345 11.017C10.505 11.017 10.664 10.985 10.813 10.924C10.961 10.862 11.095 10.772 11.209 10.659C11.283 10.584 11.372 10.524 11.471 10.483C11.569 10.442 11.674 10.421 11.781 10.421C11.887 10.421 11.992 10.442 12.091 10.483C12.189 10.524 12.278 10.584 12.353 10.659C12.43 10.732 12.491 10.821 12.533 10.918C12.575 11.016 12.597 11.121 12.597 11.228C12.597 11.334 12.575 11.439 12.533 11.537C12.491 11.634 12.43 11.723 12.353 11.796L10.345 13.829L8.33699 11.869C8.25899 11.795 8.19799 11.707 8.15599 11.609C8.11399 11.512 8.09199 11.406 8.09199 11.3C8.09199 11.194 8.11399 11.089 8.15599 10.991C8.19799 10.893 8.25899 10.805 8.33699 10.731V10.659Z" fill="white"/>
<path d="M20.4331 16.394C20.5461 16.507 20.6811 16.597 20.8291 16.659C20.9771 16.72 21.1361 16.752 21.2971 16.752C21.4581 16.752 21.6171 16.72 21.7651 16.659C21.9131 16.597 22.0481 16.507 22.1611 16.394L25.0211 13.551C25.5581 13.009 25.8861 12.295 25.9461 11.537C26.0061 10.778 25.7951 10.023 25.3501 9.40397C24.9051 8.78497 24.2541 8.34197 23.5131 8.15297C22.7711 7.96397 21.9871 8.04197 21.2971 8.37197C20.6061 8.02197 19.8121 7.92897 19.0591 8.11197C18.3051 8.29397 17.6431 8.73997 17.1921 9.36697C16.7411 9.99397 16.5311 10.761 16.6011 11.529C16.6711 12.297 17.0161 13.014 17.5731 13.551L20.4331 16.394ZM19.2891 10.659C19.3631 10.582 19.4521 10.521 19.5501 10.479C19.6481 10.437 19.7541 10.416 19.8611 10.416C19.9681 10.416 20.0741 10.437 20.1721 10.479C20.2701 10.521 20.3591 10.582 20.4331 10.659C20.5461 10.772 20.6811 10.862 20.8291 10.924C20.9771 10.985 21.1361 11.017 21.2971 11.017C21.4581 11.017 21.6171 10.985 21.7651 10.924C21.9131 10.862 22.0481 10.772 22.1611 10.659C22.2361 10.584 22.3251 10.524 22.4231 10.483C22.5211 10.442 22.6271 10.421 22.7331 10.421C22.8391 10.421 22.9451 10.442 23.0431 10.483C23.1411 10.524 23.2301 10.584 23.3051 10.659C23.3821 10.732 23.4441 10.821 23.4861 10.918C23.5281 11.016 23.5501 11.121 23.5501 11.228C23.5501 11.334 23.5281 11.439 23.4861 11.537C23.4441 11.634 23.3821 11.723 23.3051 11.796L21.2971 13.829L19.2891 11.869C19.2121 11.795 19.1501 11.707 19.1081 11.609C19.0661 11.512 19.0451 11.406 19.0451 11.3C19.0451 11.194 19.0661 11.089 19.1081 10.991C19.1501 10.893 19.2121 10.805 19.2891 10.731V10.659Z" fill="white"/>
<path d="M24.339 17.918C24.016 17.918 23.706 18.046 23.478 18.272C23.25 18.499 23.122 18.807 23.122 19.128C23.122 22.467 19.848 25.177 15.82 25.177C11.792 25.177 8.51798 22.467 8.51798 19.128C8.51798 18.807 8.38998 18.499 8.16198 18.272C7.93398 18.046 7.62398 17.918 7.30098 17.918C6.97898 17.918 6.66898 18.046 6.44098 18.272C6.21298 18.499 6.08398 18.807 6.08398 19.128C6.08398 23.798 10.453 27.597 15.82 27.597C21.187 27.597 25.556 23.798 25.556 19.128C25.556 18.807 25.427 18.499 25.199 18.272C24.971 18.046 24.661 17.918 24.339 17.918Z" fill="white"/>
<path d="M49.35 21.6869H42.671L41.303 25.4559H37.917L44.225 8.96289H47.936L54.197 25.4559H50.719L49.35 21.6869ZM43.738 18.7559H48.284L46.011 12.5219L43.738 18.7559Z" fill="white"/>
<path d="M62.052 22.4779C62.717 22.4779 63.35 22.3769 63.953 22.1759C64.556 21.9589 65.082 21.6329 65.53 21.1989C65.979 20.7649 66.334 20.2219 66.597 19.5709C66.8601 18.9039 66.991 18.1209 66.991 17.2209C66.991 16.3219 66.8601 15.5459 66.597 14.8949C66.334 14.2279 65.979 13.6779 65.53 13.2429C65.097 12.8089 64.5801 12.4839 63.9771 12.2659C63.3741 12.0489 62.7401 11.9409 62.0751 11.9409H59.501V22.4779H62.052ZM56.3 25.4559V8.96289H62.1911C63.3661 8.96289 64.4481 9.14889 65.4381 9.52189C66.4271 9.89389 67.277 10.4359 67.989 11.1499C68.715 11.8479 69.28 12.7079 69.682 13.7319C70.099 14.7549 70.308 15.9189 70.308 17.2209C70.308 18.5239 70.099 19.6869 69.682 20.7099C69.28 21.7339 68.715 22.5949 67.989 23.2919C67.262 23.9899 66.4041 24.5249 65.4151 24.8969C64.4251 25.2699 63.343 25.4559 62.168 25.4559H56.3Z" fill="white"/>
<path d="M78.834 16.4769C79.638 16.4769 80.264 16.2669 80.712 15.8489C81.176 15.4149 81.408 14.8409 81.408 14.1269C81.408 13.3829 81.176 12.8009 80.712 12.3829C80.264 11.9639 79.638 11.7549 78.834 11.7549H76.306V16.4769H78.834ZM76.283 19.2449V25.4559H73.082V8.96289H79.228C80.032 8.96289 80.766 9.09489 81.431 9.35889C82.096 9.60689 82.668 9.96289 83.147 10.4289C83.627 10.8779 83.99 11.4209 84.237 12.0569C84.5 12.6769 84.632 13.3599 84.632 14.1039C84.632 14.8479 84.5 15.5389 84.237 16.1739C83.99 16.8099 83.627 17.3529 83.147 17.8029C82.668 18.2519 82.096 18.6089 81.431 18.8729C80.766 19.1209 80.032 19.2449 79.228 19.2449H76.283Z" fill="white"/>
<path d="M87.0791 25.4559V8.96289H90.2791V22.3849H97.6081V25.4559H87.0791Z" fill="white"/>
<path d="M99.8241 25.456V14.011H102.909V25.456H99.8241ZM99.4531 10.266C99.4531 9.72296 99.6391 9.26596 100.01 8.89396C100.381 8.52196 100.829 8.33496 101.355 8.33496C101.896 8.33496 102.344 8.52196 102.7 8.89396C103.071 9.26596 103.256 9.72296 103.256 10.266C103.256 10.778 103.071 11.22 102.7 11.592C102.344 11.964 101.896 12.15 101.355 12.15C100.829 12.15 100.381 11.964 100.01 11.592C99.6391 11.22 99.4531 10.778 99.4531 10.266Z" fill="white"/>
<path d="M107.881 21.6881C107.911 22.1371 108.097 22.5411 108.437 22.8971C108.777 23.2541 109.288 23.4321 109.968 23.4321C110.478 23.4321 110.857 23.3241 111.104 23.1071C111.352 22.8741 111.475 22.6031 111.475 22.2921C111.475 22.0291 111.382 21.8041 111.197 21.6181C111.011 21.4161 110.694 21.2691 110.246 21.1761L108.739 20.8271C107.625 20.5791 106.814 20.1521 106.304 19.5481C105.793 18.9271 105.538 18.2141 105.538 17.4081C105.538 16.8961 105.646 16.4151 105.863 15.9651C106.079 15.5001 106.373 15.1051 106.744 14.7791C107.131 14.4381 107.579 14.1671 108.089 13.9651C108.615 13.7631 109.187 13.6631 109.805 13.6631C110.609 13.6631 111.29 13.7791 111.846 14.0111C112.403 14.2281 112.851 14.5081 113.191 14.8491C113.547 15.1901 113.81 15.5541 113.98 15.9421C114.15 16.3141 114.25 16.6551 114.281 16.9661L111.707 17.5471C111.676 17.3771 111.622 17.2061 111.545 17.0351C111.483 16.8491 111.375 16.6791 111.22 16.5241C111.066 16.3691 110.872 16.2441 110.64 16.1511C110.424 16.0581 110.153 16.0121 109.829 16.0121C109.427 16.0121 109.079 16.1201 108.785 16.3371C108.507 16.5551 108.368 16.8261 108.368 17.1521C108.368 17.4311 108.46 17.6561 108.646 17.8261C108.847 17.9971 109.102 18.1131 109.411 18.1751L111.035 18.5241C112.163 18.7571 113.006 19.1911 113.562 19.8271C114.135 20.4631 114.421 21.1991 114.421 22.0371C114.421 22.5021 114.328 22.9591 114.142 23.4091C113.972 23.8591 113.702 24.2621 113.331 24.6191C112.96 24.9751 112.496 25.2621 111.939 25.4791C111.382 25.6961 110.733 25.8051 109.991 25.8051C109.125 25.8051 108.399 25.6811 107.811 25.4331C107.223 25.1851 106.744 24.8821 106.373 24.5261C106.002 24.1691 105.724 23.7891 105.538 23.3861C105.368 22.9671 105.268 22.5951 105.237 22.2691L107.881 21.6881Z" fill="white"/>
<path d="M120.704 14.011H123V16.756H120.704V21.548C120.704 22.044 120.812 22.393 121.029 22.595C121.261 22.781 121.601 22.874 122.049 22.874C122.234 22.874 122.421 22.866 122.606 22.85C122.791 22.835 122.923 22.812 123 22.781V25.339C122.861 25.401 122.645 25.463 122.351 25.525C122.072 25.588 121.709 25.619 121.261 25.619C120.147 25.619 119.266 25.308 118.617 24.688C117.967 24.068 117.643 23.199 117.643 22.083V16.756H115.579V14.011H116.158C116.761 14.011 117.202 13.84 117.48 13.499C117.774 13.143 117.921 12.708 117.921 12.197V10.592H120.704V14.011Z" fill="white"/>
</g>
<defs>
<clipPath id="clip0_5_718">
<rect width="123" height="32" fill="white" transform="translate(0 0.97998)"/>
</clipPath>
</defs>
</svg>
