<svg width="100" height="101" viewBox="0 0 100 101" fill="none" xmlns="http://www.w3.org/2000/svg">
<g id="svg1990494921" clip-path="url(#clip0_5_1003)">
<path id="Vector" d="M1 50.8408C1 23.7788 22.938 1.84082 50 1.84082C77.062 1.84082 99 23.7788 99 50.8408C99 77.9028 77.062 99.8408 50 99.8408C22.938 99.8408 1 77.9028 1 50.8408Z" fill="#131313" fill-opacity="0.89" stroke="black" stroke-width="2" stroke-miterlimit="10"/>
<g id="ss1990494921_2">
<path id="Vector_2" d="M72.288 38.6447C71.969 38.0867 71.501 37.6287 70.937 37.3197L51.68 26.7777C51.165 26.4947 50.587 26.3467 50 26.3467C49.413 26.3467 48.835 26.4947 48.32 26.7777L29.07 37.3177C28.506 37.6257 28.038 38.0847 27.718 38.6427C27.413 39.1717 27.252 39.7697 27.25 40.3797V61.3007C27.251 61.9277 27.421 62.5427 27.741 63.0807C28.061 63.6197 28.52 64.0627 29.07 64.3637L48.32 74.9007C48.834 75.1847 49.412 75.3337 50 75.3337C50.588 75.3337 51.166 75.1847 51.68 74.9007L70.93 64.3637C71.48 64.0627 71.939 63.6197 72.259 63.0807C72.579 62.5427 72.749 61.9277 72.75 61.3007V40.3797C72.75 39.7717 72.591 39.1737 72.288 38.6447ZM48.25 70.8797L41.25 67.0477V56.0907C41.249 55.7767 41.164 55.4697 41.004 55.2007C40.844 54.9307 40.615 54.7097 40.34 54.5587L30.75 49.3087V42.3087L48.25 51.8907V70.8797ZM50 48.8457L32.644 39.3427L40.187 35.2147L49.156 40.1257C49.413 40.2667 49.702 40.3407 49.996 40.3407C50.289 40.3407 50.578 40.2667 50.836 40.1257L59.804 35.2147L67.347 39.3427L50 48.8457ZM69.25 49.3047L59.66 54.5547C59.385 54.7057 59.156 54.9267 58.996 55.1957C58.836 55.4657 58.751 55.7727 58.75 56.0857V67.0437L51.75 70.8757V51.8777L69.25 42.2957V49.3047Z" fill="#917FF5"/>
<path id="Vector_3" d="M70.697 37.7577C71.18 38.0227 71.581 38.4157 71.854 38.8937C72.113 39.3457 72.25 39.8587 72.25 40.3797V61.2997C72.249 61.8367 72.103 62.3637 71.829 62.8257C71.555 63.2877 71.161 63.6667 70.69 63.9247L51.44 74.4617L51.438 74.4627C50.998 74.7067 50.503 74.8337 50 74.8337C49.497 74.8337 49.002 74.7067 48.562 74.4627L48.56 74.4617L29.31 63.9247C28.839 63.6667 28.445 63.2877 28.171 62.8257C27.897 62.3637 27.751 61.8377 27.75 61.3007V40.3807C27.752 39.8587 27.89 39.3457 28.151 38.8927L28.152 38.8917C28.426 38.4137 28.827 38.0207 29.31 37.7557L48.56 27.2167L48.561 27.2157C49.002 26.9737 49.497 26.8467 50 26.8467C50.503 26.8467 50.998 26.9737 51.439 27.2157L51.44 27.2167L70.697 37.7577Z" stroke="black" stroke-miterlimit="10"/>
</g>
</g>
<defs>
<clipPath id="clip0_5_1003">
<rect width="100" height="100" fill="white" transform="translate(0 0.84082)"/>
</clipPath>
</defs>
</svg>
