<svg width="171" height="33" viewBox="0 0 171 33" fill="none" xmlns="http://www.w3.org/2000/svg">
<g clip-path="url(#clip0_5_802)">
<g clip-path="url(#clip1_5_802)">
<path d="M104.392 6.92809V28.2291H110.404V6.92809H104.392ZM57.0889 6.89209V28.2111H63.1549V11.6571L67.8849 11.6751C69.4379 11.6751 70.5209 12.0551 71.2609 12.8491C72.2179 13.8601 72.5969 15.5031 72.5969 18.4811V28.2111H78.4829V16.4411C78.4829 8.02909 73.1209 6.89209 67.8849 6.89209H57.0889ZM114.087 6.92809V28.2291H123.836C129.036 28.2291 130.733 27.3631 132.557 25.4311C133.857 24.0771 134.687 21.0811 134.687 17.8131C134.687 14.8171 133.983 12.1451 132.737 10.4841C130.534 7.50509 127.321 6.92809 122.518 6.92809H114.087ZM120.045 11.5491H122.627C126.382 11.5491 128.801 13.2281 128.801 17.5971C128.801 21.9651 126.382 23.6621 122.627 23.6621H120.045V11.5491ZM95.7249 6.92809L90.7059 23.8071L85.9039 6.92809H79.4039L86.2649 28.2291H94.9309L101.864 6.92809H95.7249ZM137.504 28.2291H143.516V6.92809H137.504V28.2291ZM154.367 6.92809L145.971 28.2111H151.893L153.229 24.4381H163.159L164.423 28.1931H170.868L162.401 6.92809H154.367ZM158.266 10.8091L161.913 20.7741H154.511L158.266 10.8091Z" fill="white"/>
<path d="M18.289 10.466V7.54204C18.578 7.52404 18.867 7.50504 19.156 7.50504C27.172 7.25304 32.426 14.401 32.426 14.401C32.426 14.401 26.757 22.272 20.672 22.272C19.86 22.272 19.066 22.146 18.307 21.893V13.011C21.431 13.39 22.063 14.762 23.922 17.885L28.093 14.383C28.093 14.383 25.042 10.394 19.914 10.394C19.373 10.376 18.831 10.412 18.289 10.466ZM18.289 0.790039V5.15904L19.156 5.10404C30.296 4.72504 37.572 14.239 37.572 14.239C37.572 14.239 29.23 24.384 20.546 24.384C19.788 24.384 19.048 24.312 18.307 24.186V26.893C18.921 26.966 19.553 27.02 20.167 27.02C28.255 27.02 34.105 22.886 39.774 18.012C40.713 18.77 44.559 20.593 45.353 21.388C39.973 25.901 27.425 29.529 20.311 29.529C19.625 29.529 18.975 29.493 18.325 29.421V33.23H49.054V0.790039H18.289ZM18.289 21.893V24.204C10.815 22.868 8.738 15.087 8.738 15.087C8.738 15.087 12.331 11.116 18.289 10.466V12.993H18.271C15.148 12.614 12.692 15.539 12.692 15.539C12.692 15.539 14.083 20.467 18.289 21.893ZM5.019 14.762C5.019 14.762 9.443 8.22804 18.307 7.54204V5.15904C8.486 5.95304 0 14.257 0 14.257C0 14.257 4.803 28.157 18.289 29.421V26.893C8.395 25.666 5.019 14.762 5.019 14.762Z" fill="#76B900"/>
</g>
</g>
<defs>
<clipPath id="clip0_5_802">
<rect width="171" height="32" fill="white" transform="translate(0 0.97998)"/>
</clipPath>
<clipPath id="clip1_5_802">
<rect width="171" height="32" fill="white" transform="translate(0 0.97998)"/>
</clipPath>
</defs>
</svg>
