<svg width="54" height="33" viewBox="0 0 54 33" fill="none" xmlns="http://www.w3.org/2000/svg">
<g clip-path="url(#clip0_5_763)">
<path d="M27.4291 3.08298L27.6121 4.33298H30.1411L29.4101 0.97998H26.0271L23.9551 4.33298H26.7281L27.4291 3.08298Z" fill="white"/>
<path d="M30.1711 9.72707L29.2261 5.24707H26.6971L26.8801 6.49707H25.0811L25.8131 5.24707H23.0401L20.2971 9.72707H23.2831L23.9231 8.56907H27.2151L27.3981 9.72707H30.1711Z" fill="white"/>
<path d="M38.034 9.17907C38.918 8.81307 39.588 8.26407 40.045 7.59407C40.502 6.92307 40.746 6.16107 40.746 5.24707H37.851C37.851 5.33907 37.881 5.40007 37.881 5.49107C37.881 6.13107 37.668 6.61907 37.211 6.98407C36.754 7.35007 36.175 7.53307 35.443 7.53307H34.346L34.803 5.24707H32L31.085 9.72707H34.925C36.114 9.72707 37.15 9.54407 38.034 9.17907Z" fill="white"/>
<path d="M35.962 3.17495H37.09C37.669 3.17495 38.096 3.29695 38.37 3.50995C38.583 3.69295 38.736 3.96695 38.766 4.33295H41.661C41.661 4.33295 41.661 4.33295 41.661 4.30195C41.661 3.20495 41.296 2.38195 40.595 1.80295C39.894 1.25495 38.858 0.949951 37.456 0.949951H33.616L32.915 4.33295H35.688L35.962 3.17495Z" fill="white"/>
<path d="M45.8661 6.92307L47.2681 5.24707H42.3921L43.0631 6.80107L42.4531 9.72707H45.2871L45.8661 6.92307Z" fill="white"/>
<path d="M48.183 4.33298L51.048 0.97998H48L45.775 3.75398L44.709 0.97998H41.783L43.307 4.33298H48.183Z" fill="white"/>
<path d="M7.92394 2.93098H9.14294C9.53894 2.93098 9.84394 2.99198 9.99594 3.08298C10.1789 3.17498 10.2399 3.35798 10.2399 3.60098C10.2399 3.96698 10.0569 4.21098 9.69094 4.33298H12.7699C12.8609 4.05898 12.9219 3.75398 12.9219 3.41898C12.9219 2.65698 12.6479 2.04698 12.0689 1.61998C11.4899 1.19398 10.7279 0.97998 9.75194 0.97998H5.60794L5.21094 2.93098H7.92394Z" fill="white"/>
<path d="M21.9741 0.97998H14.9031L14.4761 2.96098H21.5771L21.9741 0.97998Z" fill="white"/>
<path d="M18.012 4.63794L18.103 4.21094H14.294L14.202 4.63794L13.897 6.16094H17.707L18.012 4.63794Z" fill="white"/>
<path d="M19.962 7.74585H12.769L12.373 9.72685H19.565L19.962 7.74585Z" fill="white"/>
<path d="M16.1219 18.809H12.1599L12.6169 16.584H9.78292L8.86792 21.064H15.6649L16.1219 18.809Z" fill="white"/>
<path d="M10.697 15.6699H13.531L14.202 12.3179H11.398L10.697 15.6699Z" fill="white"/>
<path d="M20.2061 19.906H23.4671L23.6801 21.064H26.4531L25.4781 16.584H22.9791L23.1621 17.834H21.3641L22.0651 16.584H19.3221L16.5791 21.064H19.5661L20.2061 19.906Z" fill="white"/>
<path d="M22.3081 12.3179L20.2361 15.6699H22.9791L23.6801 14.4209L23.8931 15.6699H26.3921L25.6911 12.3179H22.3081Z" fill="white"/>
<path d="M28.617 18.139L28.008 21.064H30.842L31.421 18.26L32.823 16.584H27.917L28.617 18.139Z" fill="white"/>
<path d="M33.5549 12.3179L31.3299 15.0909L30.2629 12.3179H27.3379L28.8309 15.6699H33.7379L36.6019 12.3179H33.5549Z" fill="white"/>
<path d="M5.88206 14.146C6.27906 14.146 6.58306 14.207 6.73606 14.299C6.91906 14.39 6.97906 14.542 6.97906 14.786C6.97906 15.365 6.55306 15.64 5.66906 15.67H9.50906C9.66106 15.335 9.72206 14.939 9.72206 14.512C9.72206 13.72 9.44806 13.11 8.93006 12.714C8.38106 12.318 7.58906 12.104 6.52206 12.104H2.59106L2.16406 14.146H4.87706H5.88206Z" fill="white"/>
<path d="M8.625 16.584H4.785C4.754 16.584 4.693 16.584 4.663 16.584H3.992H3.688H0.945L0 21.064H2.712L3.23 18.657H4.419C5.79 18.657 6.857 18.382 7.65 17.803C8.107 17.468 8.411 17.072 8.625 16.584Z" fill="white"/>
<path d="M6.21712 7.16704H7.55812L8.59412 9.75804H11.5811L10.1791 6.74004C10.7581 6.49704 11.2151 6.16104 11.5201 5.73504C11.6411 5.58204 11.7331 5.39904 11.7941 5.21704H8.22812C8.13712 5.21704 8.01512 5.21704 7.92312 5.21704H7.00912H6.61312H3.96112L3.04712 9.72704H5.66812L6.21712 7.16704Z" fill="white"/>
<path d="M44.6779 12.3479H37.5769L37.1809 14.3289H44.2509L44.6779 12.3479Z" fill="white"/>
<path d="M36.572 17.6509H40.381L40.747 15.7009H36.937L36.572 17.6509Z" fill="white"/>
<path d="M35.0779 21.095H42.2709L42.6669 19.114H35.4739L35.0779 21.095Z" fill="white"/>
<path d="M52.9071 12.9579C52.3281 12.5309 51.566 12.3179 50.591 12.3179H46.446L46.05 14.2679H48.7621H49.981C50.377 14.2679 50.682 14.3289 50.835 14.4209C51.017 14.5119 51.078 14.6949 51.078 14.9389C51.078 15.3039 50.896 15.5479 50.53 15.6699H53.6081C53.6991 15.3959 53.76 15.0909 53.76 14.7559C53.76 13.9939 53.4561 13.3839 52.9071 12.9579Z" fill="white"/>
<path d="M52.358 17.0419C52.48 16.8889 52.571 16.7059 52.632 16.5229H49.067C48.975 16.5229 48.853 16.5229 48.762 16.5229H47.848H47.451H44.8L43.886 21.0639H46.507L47.055 18.4739H48.396L49.432 21.0639H52.419L51.017 18.0469C51.596 17.8029 52.053 17.4679 52.358 17.0419Z" fill="white"/>
<path d="M19.3521 26.2449H26.4231L26.8491 24.2339H19.7481L19.3521 26.2449Z" fill="white"/>
<path d="M22.9179 27.5859H19.1089L18.7119 29.5369H22.5219L22.9179 27.5859Z" fill="white"/>
<path d="M17.25 32.98H24.411L24.838 31H17.646L17.25 32.98Z" fill="white"/>
<path d="M7.5271 27.5859H12.0681L11.2761 24.2339H8.2281L7.5271 27.5859Z" fill="white"/>
<path d="M18.59 24.2339H15.36L13.196 27.5859H17.92L18.59 24.2339Z" fill="white"/>
<path d="M11.459 29.811L11.154 28.5H6.61297L5.69897 32.98H8.22797L9.02097 29.201L9.84298 32.98H11.885L14.293 29.11L13.501 32.98H16.091L17.005 28.5H12.282L11.459 29.811Z" fill="white"/>
</g>
<defs>
<clipPath id="clip0_5_763">
<rect width="54" height="32" fill="white" transform="translate(0 0.97998)"/>
</clipPath>
</defs>
</svg>
