<svg width="237" height="33" viewBox="0 0 237 33" fill="none" xmlns="http://www.w3.org/2000/svg">
<path d="M83.7081 31.996L80.6441 26.684C82.0881 23.98 82.0721 20.748 82.0721 16.62C82.0721 11.3 82.0721 7.45996 79.0081 4.34796C76.7841 2.18796 73.8091 0.980957 70.7131 0.980957C67.6161 0.980957 64.6421 2.18796 62.4181 4.34796C59.3141 7.45996 59.4011 11.3 59.4011 16.62C59.4011 21.94 59.3141 25.772 62.4181 28.884C63.4961 29.993 64.7911 30.865 66.2221 31.446C67.6541 32.027 69.1891 32.304 70.7331 32.26C71.6121 32.261 72.4891 32.173 73.3501 31.996H83.7081ZM66.8551 25.26C65.6901 23.964 65.3941 22.532 65.3941 16.62C65.3941 10.708 65.6901 9.26796 66.8551 7.97196C67.3501 7.44396 67.9531 7.02896 68.6211 6.75296C69.2901 6.47696 70.0101 6.34696 70.7331 6.37196C71.4501 6.34596 72.1641 6.47496 72.8261 6.75196C73.4891 7.02796 74.0841 7.44396 74.5711 7.97196C75.7361 9.26796 76.0791 10.7 76.0791 16.62C76.0791 22.54 75.7361 23.964 74.5711 25.26C74.0841 25.788 73.4891 26.205 72.8261 26.481C72.1641 26.757 71.4501 26.887 70.7331 26.86C70.0101 26.886 69.2901 26.756 68.6211 26.48C67.9531 26.204 67.3501 25.788 66.8551 25.26Z" fill="white"/>
<path d="M153.811 31.9878V1.23584H159.732V31.9878H153.811Z" fill="white"/>
<path d="M11.2042 32.26C6.55123 32.26 3.01623 31.26 0.0322266 28.196L3.91023 24.308C5.84923 26.252 8.48323 26.9 11.3232 26.9C14.8582 26.9 16.7502 25.556 16.7502 23.1C16.7812 22.627 16.7142 22.151 16.5512 21.705C16.3892 21.259 16.1362 20.851 15.8082 20.508C15.0452 19.857 14.0882 19.477 13.0872 19.428L9.38423 18.908C6.75123 18.516 4.81223 17.7 3.43923 16.356C2.68023 15.552 2.09323 14.601 1.71423 13.561C1.33523 12.521 1.17323 11.414 1.23723 10.308C1.23723 4.81998 5.29123 0.97998 11.9302 0.97998C16.1512 0.97998 19.2072 2.01198 21.8412 4.56398L17.9942 8.32398C16.0552 6.45998 13.7332 6.20398 11.7062 6.20398C8.51423 6.20398 6.96623 7.97198 6.96623 10.092C6.95723 10.503 7.03223 10.911 7.18823 11.291C7.34323 11.671 7.57423 12.014 7.86823 12.3C8.67823 12.977 9.66923 13.397 10.7172 13.508L14.3322 14.028C17.1332 14.412 18.9042 15.188 20.1972 16.428C21.7932 17.98 22.5912 20.228 22.5912 22.948C22.5832 28.876 17.6272 32.26 11.2042 32.26Z" fill="white"/>
<path d="M31.3442 31.9958V1.23584H51.5572V6.59584H37.3372V13.7958H49.4512V19.1478H37.3372V26.6358H51.5572V31.9958H31.3442Z" fill="white"/>
<path d="M102.397 32.2598C96.101 32.2598 91.105 27.9798 91.105 21.4518V1.23584H97.098V21.2358C97.098 24.7798 99.165 26.8998 102.397 26.8998C105.629 26.8998 107.735 24.7798 107.735 21.2358V1.23584H113.688V21.4518C113.688 27.9798 108.685 32.2598 102.397 32.2598Z" fill="white"/>
<path d="M141.961 28.8759C139.74 31.0419 136.763 32.2529 133.666 32.2529C130.567 32.2529 127.591 31.0419 125.371 28.8759C122.266 25.7639 122.354 21.9239 122.354 16.6119C122.354 11.2999 122.266 7.4519 125.371 4.3399C127.595 2.1809 130.569 0.9729 133.666 0.9729C136.762 0.9729 139.737 2.1809 141.961 4.3399C145.065 7.4519 145.017 11.2919 145.017 16.6119C145.017 21.9319 145.065 25.7719 141.961 28.8759ZM137.524 7.9639C137.036 7.4369 136.441 7.0209 135.779 6.7449C135.116 6.4689 134.402 6.3389 133.686 6.3639C132.963 6.3389 132.243 6.4689 131.574 6.7449C130.905 7.0209 130.303 7.4369 129.807 7.9639C128.642 9.2599 128.339 10.6919 128.339 16.6119C128.339 22.5319 128.642 23.9559 129.807 25.2519C130.303 25.7799 130.905 26.1959 131.574 26.4719C132.243 26.7479 132.963 26.8779 133.686 26.8519C134.402 26.8779 135.116 26.7479 135.779 26.4719C136.441 26.1959 137.036 25.7799 137.524 25.2519C138.689 23.9559 139.032 22.5239 139.032 16.6119C139.032 10.6999 138.689 9.2679 137.524 7.9719V7.9639Z" fill="white"/>
<path d="M187.964 31.9958L186.161 26.5558H175.196L173.345 31.9958H167.097L178.269 1.23584H182.961L194.188 31.9958H187.964ZM180.782 10.3078L176.904 21.5078H184.533L180.782 10.3078Z" fill="white"/>
<path d="M237 1.23584H229.331V8.92384H237V1.23584Z" fill="#00A071"/>
<path d="M210.156 25.4358V1.23584H206.318V29.2838L210.156 25.4358Z" fill="#00A071"/>
<path d="M212.861 28.157L209.031 31.997H237V28.157H212.861Z" fill="#00A071"/>
<path d="M217.825 17.7478V1.23584H213.986V21.5878L217.825 17.7478Z" fill="#00A071"/>
<path d="M220.538 20.468L216.699 24.308H237V20.468H220.538Z" fill="#00A071"/>
<path d="M225.493 10.0598V1.23584H221.655V13.8998L225.493 10.0598Z" fill="#00A071"/>
<path d="M228.206 12.7729L224.368 16.6209H237V12.7729H228.206Z" fill="#00A071"/>
</svg>
