<svg width="26" height="26" viewBox="0 0 26 26" fill="none" xmlns="http://www.w3.org/2000/svg">
<g clip-path="url(#clip0_5_1273)">
<g clip-path="url(#clip1_5_1273)">
<path d="M12.6401 3.01416C10.6311 3.01416 8.66815 3.60916 6.99715 4.72516C5.32715 5.84116 4.02615 7.42816 3.25715 9.28316C2.48815 11.1392 2.28715 13.1812 2.67915 15.1512C3.07115 17.1212 4.03815 18.9312 5.45815 20.3522C6.87915 21.7722 8.68915 22.7392 10.6591 23.1312C12.6291 23.5232 14.6711 23.3222 16.5271 22.5532C18.3821 21.7842 19.9691 20.4832 21.0851 18.8122C22.2011 17.1422 22.7961 15.1792 22.7961 13.1702C22.7931 10.4772 21.7221 7.89616 19.8181 5.99216C17.9141 4.08816 15.3331 3.01716 12.6401 3.01416ZM18.4161 11.5442L13.9091 13.4752L17.1451 17.3572C17.2771 17.5172 17.3411 17.7222 17.3221 17.9292C17.3041 18.1352 17.2041 18.3252 17.0441 18.4582C16.8851 18.5912 16.6801 18.6552 16.4731 18.6362C16.2671 18.6172 16.0761 18.5172 15.9441 18.3572L12.6401 14.3912L9.33415 18.3572C9.20215 18.5172 9.01115 18.6172 8.80515 18.6362C8.59815 18.6552 8.39315 18.5912 8.23415 18.4582C8.07415 18.3252 7.97415 18.1352 7.95615 17.9292C7.93715 17.7222 8.00115 17.5172 8.13315 17.3572L11.3701 13.4752L6.86415 11.5442C6.76615 11.5062 6.67815 11.4482 6.60315 11.3752C6.52915 11.3022 6.46915 11.2142 6.42915 11.1182C6.38915 11.0212 6.36815 10.9182 6.36915 10.8132C6.36915 10.7092 6.39115 10.6062 6.43215 10.5092C6.47315 10.4132 6.53315 10.3272 6.60915 10.2542C6.68415 10.1822 6.77315 10.1252 6.87115 10.0882C6.96815 10.0502 7.07215 10.0332 7.17715 10.0362C7.28115 10.0402 7.38415 10.0642 7.47915 10.1082L11.8591 11.9852V7.50616C11.8591 7.29916 11.9411 7.10016 12.0881 6.95416C12.2341 6.80716 12.4331 6.72516 12.6401 6.72516C12.8471 6.72516 13.0461 6.80716 13.1921 6.95416C13.3391 7.10016 13.4211 7.29916 13.4211 7.50616V11.9852L17.8011 10.1082C17.8961 10.0642 17.9991 10.0402 18.1031 10.0362C18.2081 10.0332 18.3121 10.0502 18.4091 10.0882C18.5071 10.1252 18.5961 10.1822 18.6711 10.2542C18.7471 10.3272 18.8071 10.4132 18.8481 10.5092C18.8891 10.6062 18.9101 10.7092 18.9111 10.8132C18.9121 10.9182 18.8911 11.0212 18.8511 11.1182C18.8111 11.2142 18.7511 11.3022 18.6771 11.3752C18.6021 11.4482 18.5141 11.5062 18.4161 11.5442Z" fill="#917FF5"/>
</g>
</g>
<defs>
<clipPath id="clip0_5_1273">
<rect width="25" height="25" fill="white" transform="translate(0.140137 0.670166)"/>
</clipPath>
<clipPath id="clip1_5_1273">
<rect width="25" height="25" fill="white" transform="translate(0.140137 0.670166)"/>
</clipPath>
</defs>
</svg>
